<svg width="33" height="33" viewBox="0 0 33 33" fill="none" xmlns="http://www.w3.org/2000/svg">
<path fill-rule="evenodd" clip-rule="evenodd" d="M21.3 29.6667V19.34H24.7667L25.2853 15.316H21.2987V12.7467C21.2987 11.5813 21.6227 10.7867 23.2947 10.7867H25.4253V7.18667C24.3935 7.07581 23.3564 7.02239 22.3187 7.02667C19.2467 7.02667 17.144 8.90267 17.144 12.3467V15.316H13.6667V19.34H17.1427V29.6667H4.472C3.65867 29.6667 3 29.008 3 28.1947V4.472C3 3.65867 3.65867 3 4.472 3H28.1947C29.008 3 29.6667 3.65867 29.6667 4.472V28.1947C29.6667 29.008 29.008 29.6667 28.1947 29.6667H21.3Z" fill="#FFFCFC"/>
</svg>
