<svg width="32" height="32" viewBox="0 0 32 32" fill="none" xmlns="http://www.w3.org/2000/svg">
<path d="M3 15.6667C3 9.696 3 6.70933 4.85467 4.85467C6.70933 3 9.69467 3 15.6667 3C21.6373 3 24.624 3 26.4787 4.85467C28.3333 6.70933 28.3333 9.69467 28.3333 15.6667C28.3333 21.6373 28.3333 24.624 26.4787 26.4787C24.624 28.3333 21.6387 28.3333 15.6667 28.3333C9.696 28.3333 6.70933 28.3333 4.85467 26.4787C3 24.624 3 21.6387 3 15.6667Z" stroke="#FFFCFC" stroke-width="1.5" stroke-linecap="round" stroke-linejoin="round"/>
<path d="M23.012 8.33203H22.9986M21.668 15.6654C21.668 17.2567 21.0358 18.7828 19.9106 19.908C18.7854 21.0332 17.2593 21.6654 15.668 21.6654C14.0767 21.6654 12.5505 21.0332 11.4253 19.908C10.3001 18.7828 9.66797 17.2567 9.66797 15.6654C9.66797 14.0741 10.3001 12.5479 11.4253 11.4227C12.5505 10.2975 14.0767 9.66536 15.668 9.66536C17.2593 9.66536 18.7854 10.2975 19.9106 11.4227C21.0358 12.5479 21.668 14.0741 21.668 15.6654Z" stroke="#FFFCFC" stroke-width="1.5" stroke-linecap="round" stroke-linejoin="round"/>
</svg>
