<svg width="135" height="67" viewBox="0 0 135 67" fill="none" xmlns="http://www.w3.org/2000/svg">
<path d="M40.9244 65C40.8284 65 40.7564 64.936 40.7084 64.808C40.6604 64.68 40.6524 64.552 40.6844 64.424C40.7324 64.296 40.8204 64.232 40.9484 64.232C41.8924 64.184 42.6284 64.072 43.1564 63.896C43.6844 63.704 43.9484 63.304 43.9484 62.696V50.408C43.9484 50.024 43.8764 49.744 43.7324 49.568C43.5884 49.392 43.2444 49.304 42.7004 49.304H41.0444C40.9324 49.304 40.8524 49.24 40.8044 49.112C40.7724 48.968 40.7724 48.832 40.8044 48.704C40.8364 48.56 40.9164 48.488 41.0444 48.488C41.8604 48.456 42.6604 48.336 43.4444 48.128C44.2284 47.92 44.8924 47.688 45.4364 47.432C45.6604 47.336 45.9244 47.288 46.2284 47.288C46.5964 47.288 46.7804 47.416 46.7804 47.672V62.696C46.7804 63.336 47.0684 63.744 47.6444 63.92C48.2204 64.096 48.9404 64.2 49.8044 64.232C49.9164 64.232 49.9884 64.296 50.0204 64.424C50.0524 64.552 50.0524 64.68 50.0204 64.808C49.9884 64.936 49.9164 65 49.8044 65H40.9244ZM57.6698 65.288C56.5018 65.288 55.4618 65.112 54.5498 64.76C53.6538 64.392 52.9498 63.856 52.4378 63.152C51.9258 62.432 51.6698 61.544 51.6698 60.488C51.6698 58.024 53.0618 56.512 55.8458 55.952C55.2058 55.76 54.6058 55.488 54.0458 55.136C53.5018 54.768 53.0618 54.304 52.7258 53.744C52.4058 53.184 52.2458 52.512 52.2458 51.728C52.2458 50.688 52.4938 49.84 52.9898 49.184C53.5018 48.528 54.1738 48.048 55.0058 47.744C55.8378 47.44 56.7258 47.288 57.6698 47.288C58.6298 47.288 59.5178 47.44 60.3338 47.744C61.1658 48.048 61.8298 48.528 62.3258 49.184C62.8378 49.84 63.0938 50.688 63.0938 51.728C63.0938 52.896 62.7498 53.816 62.0618 54.488C61.3738 55.16 60.5338 55.648 59.5418 55.952C60.9178 56.224 61.9498 56.752 62.6378 57.536C63.3258 58.304 63.6698 59.288 63.6698 60.488C63.6698 61.544 63.4138 62.432 62.9018 63.152C62.3898 63.856 61.6778 64.392 60.7658 64.76C59.8698 65.112 58.8378 65.288 57.6698 65.288ZM57.6698 64.28C58.4538 64.28 59.0778 64.112 59.5418 63.776C60.0058 63.424 60.3418 62.952 60.5498 62.36C60.7578 61.768 60.8618 61.12 60.8618 60.416C60.8618 59.28 60.5898 58.328 60.0458 57.56C59.5178 56.792 58.7258 56.408 57.6698 56.408C56.6138 56.408 55.8138 56.792 55.2698 57.56C54.7418 58.328 54.4778 59.28 54.4778 60.416C54.4778 61.12 54.5818 61.768 54.7898 62.36C54.9978 62.952 55.3338 63.424 55.7978 63.776C56.2618 64.112 56.8858 64.28 57.6698 64.28ZM57.6698 55.448C58.4538 55.448 59.0298 55.256 59.3978 54.872C59.7818 54.488 60.0298 54.008 60.1418 53.432C60.2698 52.856 60.3338 52.288 60.3338 51.728C60.3338 50.544 60.0858 49.672 59.5898 49.112C59.1098 48.552 58.4698 48.272 57.6698 48.272C56.8858 48.272 56.2458 48.552 55.7498 49.112C55.2538 49.672 55.0058 50.544 55.0058 51.728C55.0058 52.288 55.0618 52.856 55.1738 53.432C55.3018 54.008 55.5498 54.488 55.9178 54.872C56.3018 55.256 56.8858 55.448 57.6698 55.448ZM71.8747 65.288C70.0827 65.288 68.6507 64.504 67.5787 62.936C66.5067 61.368 65.9707 59.152 65.9707 56.288C65.9707 53.424 66.5067 51.208 67.5787 49.64C68.6507 48.072 70.0827 47.288 71.8747 47.288C73.6827 47.288 75.1147 48.072 76.1707 49.64C77.2427 51.208 77.7787 53.424 77.7787 56.288C77.7787 59.152 77.2427 61.368 76.1707 62.936C75.1147 64.504 73.6827 65.288 71.8747 65.288ZM71.8747 64.424C73.0107 64.424 73.7707 63.744 74.1547 62.384C74.5547 61.024 74.7547 58.992 74.7547 56.288C74.7547 53.568 74.5547 51.536 74.1547 50.192C73.7707 48.832 73.0107 48.152 71.8747 48.152C70.7387 48.152 69.9707 48.832 69.5707 50.192C69.1867 51.536 68.9947 53.568 68.9947 56.288C68.9947 58.992 69.1867 61.024 69.5707 62.384C69.9707 63.744 70.7387 64.424 71.8747 64.424ZM85.043 65.288C83.539 65.288 82.323 64.968 81.395 64.328C80.483 63.688 80.027 62.856 80.027 61.832C80.027 61.24 80.195 60.792 80.531 60.488C80.867 60.184 81.259 60.056 81.707 60.104C82.123 60.152 82.427 60.36 82.619 60.728C82.811 61.096 82.867 61.528 82.787 62.024C82.659 62.776 82.795 63.344 83.195 63.728C83.595 64.112 84.187 64.304 84.971 64.304C85.611 64.304 86.187 64.16 86.699 63.872C87.227 63.568 87.643 63.056 87.947 62.336C88.267 61.616 88.427 60.624 88.427 59.36C88.427 58.144 88.283 57.224 87.995 56.6C87.723 55.976 87.355 55.552 86.891 55.328C86.443 55.088 85.947 54.968 85.403 54.968C84.907 54.968 84.379 55.088 83.819 55.328C83.275 55.568 82.763 55.984 82.283 56.576C82.219 56.672 82.115 56.72 81.971 56.72H81.323C81.275 56.72 81.219 56.712 81.155 56.696C81.107 56.664 81.083 56.608 81.083 56.528V47.72C81.083 47.608 81.115 47.52 81.179 47.456C81.243 47.392 81.387 47.376 81.611 47.408C82.123 47.472 82.763 47.52 83.531 47.552C84.315 47.584 85.123 47.6 85.955 47.6C86.803 47.584 87.579 47.56 88.283 47.528C88.987 47.48 89.523 47.408 89.891 47.312C90.099 47.264 90.235 47.272 90.299 47.336C90.331 47.368 90.339 47.408 90.323 47.456C90.323 47.504 90.315 47.544 90.299 47.576C90.299 47.592 90.299 47.6 90.299 47.6C90.283 47.616 90.235 47.752 90.155 48.008C90.075 48.264 89.987 48.536 89.891 48.824C89.811 49.096 89.731 49.304 89.651 49.448C89.555 49.624 89.419 49.752 89.243 49.832C89.067 49.896 88.827 49.952 88.523 50C88.203 50.048 87.755 50.088 87.179 50.12C86.603 50.136 85.987 50.144 85.331 50.144C84.691 50.128 84.091 50.104 83.531 50.072C82.971 50.04 82.547 50 82.259 49.952V55.4C82.611 55.032 83.099 54.696 83.723 54.392C84.363 54.088 85.067 53.936 85.835 53.936C86.859 53.936 87.795 54.136 88.643 54.536C89.491 54.92 90.171 55.512 90.683 56.312C91.195 57.096 91.451 58.08 91.451 59.264C91.451 60.336 91.211 61.328 90.731 62.24C90.267 63.152 89.563 63.888 88.619 64.448C87.675 65.008 86.483 65.288 85.043 65.288Z" fill="white"/>
<path d="M9.50002 45V17.5H30M30 17.5V16L19.5 10.5L9.31738 17.5M30 17.5H57.5V16H63V14.5L63.5 13L64.5 12L65.5 11.5H66.5H68.5L69.5 12L70.5 13L71 14.5V16H76V17.5H102M30 17.5V21.5M30 45V21.5M102 17.5V16L112 10.5L124 17.5M102 17.5H104M124 17.5V45M124 17.5H104M104 45V21.5M104 17.5V21.5M104 21.5H30M32.5 41.5V27.5H39M102 41.5V27.5H96M96 27.5V42M96 27.5H90M90 27.5V42M90 27.5H84M84 27.5V42M84 27.5H78.5M78.5 42V27.5M78.5 27.5H72.5M72.5 42V27.5M72.5 27.5H66.5M61 42V27.5M61 27.5H66.5M61 27.5H55.5M66.5 42V27.5M55.5 42V27.5M55.5 27.5H50M50 42V27.5M50 27.5H44M44 42V27.5M44 27.5H39M39 42V27.5M53 44.5H81.5M14 53H39.5M14.5 57.5H39.5M94.5 53H120M94.5 57.5H120" stroke="white" stroke-width="2"/>
</svg>
