<svg width="48" height="48" viewBox="0 0 48 48" fill="none" xmlns="http://www.w3.org/2000/svg">
<path d="M41.7803 20.6066C42.0331 18.9108 41.9502 17.1747 41.5316 15.5054C40.9787 13.3002 39.8399 11.2118 38.1154 9.4873C36.3909 7.76281 34.3025 6.62409 32.0974 6.07115C30.4281 5.65257 28.6919 5.56967 26.9961 5.82245" stroke="black" stroke-width="1.2" stroke-linecap="round" stroke-linejoin="round"/>
<path d="M34.1906 19.8035C34.4614 17.9869 33.8976 16.0699 32.4992 14.6715C31.1007 13.2731 29.1837 12.7092 27.3672 12.98" stroke="#1E90FF" stroke-width="1.2" stroke-linecap="round" stroke-linejoin="round"/>
<path d="M14.3747 8.79395C15.1013 8.79395 15.7707 9.18796 16.1233 9.8232L18.5698 14.23C18.8901 14.807 18.9051 15.5049 18.61 16.0952L16.2532 20.8088C16.2532 20.8088 16.9362 24.3203 19.7946 27.1787C22.653 30.0371 26.1527 30.7083 26.1527 30.7083L30.8656 28.3519C31.4563 28.0565 32.1547 28.0718 32.7319 28.3927L37.1512 30.8497C37.7858 31.2025 38.1794 31.8716 38.1794 32.5977V37.6712C38.1794 40.2549 35.7795 42.121 33.3314 41.2949C28.3035 39.5984 20.4988 36.3682 15.552 31.4213C10.6051 26.4745 7.3749 18.6698 5.67836 13.6419C4.85234 11.1938 6.71843 8.79395 9.30208 8.79395H14.3747Z" stroke="black" stroke-width="1.2" stroke-linejoin="round"/>
</svg>
