<svg width="39" height="40" viewBox="0 0 39 40" fill="none" xmlns="http://www.w3.org/2000/svg">
<path d="M19.5 0.5C27.8013 0.500149 34.5332 7.06601 34.5332 15.1084C34.5332 20.8513 31.1075 26.753 27.5283 31.335C23.9731 35.8863 20.3415 39.0418 20.0371 39.3037C19.8848 39.4333 19.6937 39.4999 19.5 39.5C19.3063 39.5 19.1157 39.4339 18.9639 39.3037L18.7061 39.0781C17.7686 38.2465 14.5911 35.3281 11.4717 31.335C7.89241 26.7531 4.46585 20.8515 4.46582 15.1084C4.46582 7.06592 11.1986 0.5 19.5 0.5ZM19.5 6.16699C14.4819 6.16699 10.3701 10.1125 10.3701 15C10.3701 19.8875 14.4819 23.833 19.5 23.833C24.5179 23.8329 28.6299 19.8874 28.6299 15C28.6299 10.1126 24.5179 6.16714 19.5 6.16699Z" fill="#F56163" stroke="#DA4648"/>
<path d="M19.5 5.74597C24.8861 5.74615 29.2451 10.0767 29.2451 15.41C29.245 20.7433 24.886 25.0739 19.5 25.0741C14.1138 25.0741 9.75398 20.7434 9.75391 15.41C9.75391 10.0766 14.1138 5.74597 19.5 5.74597Z" fill="white" stroke="#DA4648"/>
<path d="M17.292 15.062H18.645V18.131C18.249 18.4463 17.787 18.6883 17.259 18.857C16.731 19.0257 16.1883 19.11 15.631 19.11C14.8463 19.11 14.1387 18.9413 13.508 18.604C12.8773 18.2593 12.3823 17.7863 12.023 17.185C11.6637 16.5837 11.484 15.9053 11.484 15.15C11.484 14.3947 11.6637 13.7163 12.023 13.115C12.3823 12.5137 12.8773 12.0443 13.508 11.707C14.146 11.3623 14.861 11.19 15.653 11.19C16.2983 11.19 16.885 11.2963 17.413 11.509C17.941 11.7217 18.3847 12.0333 18.744 12.444L17.842 13.324C17.2553 12.7373 16.5477 12.444 15.719 12.444C15.1763 12.444 14.6923 12.5577 14.267 12.785C13.849 13.0123 13.519 13.3313 13.277 13.742C13.0423 14.1527 12.925 14.622 12.925 15.15C12.925 15.6633 13.0423 16.1253 13.277 16.536C13.519 16.9467 13.849 17.2693 14.267 17.504C14.6923 17.7387 15.1727 17.856 15.708 17.856C16.3093 17.856 16.8373 17.724 17.292 17.46V15.062ZM23.6991 11.3C24.3664 11.3 24.9457 11.41 25.4371 11.63C25.9357 11.85 26.3171 12.1653 26.5811 12.576C26.8451 12.9867 26.9771 13.4743 26.9771 14.039C26.9771 14.5963 26.8451 15.084 26.5811 15.502C26.3171 15.9127 25.9357 16.228 25.4371 16.448C24.9457 16.668 24.3664 16.778 23.6991 16.778H21.9611V19H20.5311V11.3H23.6991ZM23.6331 15.568C24.2564 15.568 24.7294 15.436 25.0521 15.172C25.3747 14.908 25.5361 14.5303 25.5361 14.039C25.5361 13.5477 25.3747 13.17 25.0521 12.906C24.7294 12.642 24.2564 12.51 23.6331 12.51H21.9611V15.568H23.6331Z" fill="#F56163"/>
</svg>
