<svg width="32" height="31" viewBox="0 0 32 31" fill="none" xmlns="http://www.w3.org/2000/svg">
<path fill-rule="evenodd" clip-rule="evenodd" d="M27.4595 5.61332C28.7225 5.95137 29.715 6.9438 30.053 8.20668C30.6639 10.4933 30.6663 15.2672 30.6663 15.2672C30.6663 15.2672 30.6663 20.0409 30.053 22.3276C29.715 23.5905 28.7225 24.5829 27.4595 24.9209C25.173 25.5343 15.9997 25.5343 15.9997 25.5343C15.9997 25.5343 6.82635 25.5343 4.53967 24.9209C3.27681 24.5829 2.28438 23.5905 1.94633 22.3276C1.33301 20.0409 1.33301 15.2672 1.33301 15.2672C1.33301 15.2672 1.33301 10.4933 1.94633 8.20668C2.28438 6.9438 3.27681 5.95137 4.53967 5.61332C6.82635 5 15.9997 5 15.9997 5C15.9997 5 25.173 5 27.4595 5.61332ZM20.6842 15.2676L13.0635 19.6671V10.868L20.6842 15.2676Z" stroke="white" stroke-width="2" stroke-linejoin="round"/>
</svg>
